<svg width="161" height="31" viewBox="0 0 161 31" fill="none" xmlns="http://www.w3.org/2000/svg">
<g id="modus_logo">
<g id="Group">
<path id="Vector" d="M88.9952 22.1404L88.9942 22.1421C88.5187 22.9886 87.8268 23.7196 86.9939 24.2662L86.9874 24.2705L86.9807 24.2745C86.1379 24.7908 85.1455 25.0882 84.1454 25.0882H77.8939H77.3939V24.5882V6.12182V5.62182H77.8939H84.1789C85.4809 5.62182 86.7437 6.14487 87.6728 7.07793C88.6693 8.04586 89.3787 9.22657 89.803 10.5427L88.9952 22.1404ZM88.9952 22.1404C89.4874 21.256 89.8359 20.3072 90.0785 19.3326C90.2259 18.7912 90.3195 17.9157 90.3816 17.0824C90.4451 16.2313 90.4788 15.3739 90.4956 14.8496L90.4958 14.8416M88.9952 22.1404L90.4958 14.8416M90.4958 14.8416V14.8336M90.4958 14.8416V14.8336M90.4958 14.8336C90.4958 13.3991 90.2526 11.9346 89.8031 10.5428L90.4958 14.8336ZM97.3996 10.6123L97.3995 10.6123L97.4016 10.6205C97.7573 11.987 97.9208 13.3921 97.9538 14.7723C97.9531 16.6672 97.6195 19.7505 96.9523 21.445L96.9522 21.4449L96.9497 21.4515C96.3365 23.0751 95.4333 24.5684 94.272 25.8672C93.148 27.0945 91.7647 28.0983 90.2508 28.8113L90.2508 28.8112L90.243 28.815C88.7467 29.5518 87.0849 29.9072 85.3824 29.9072H70.3036V0.735458H86.7196C87.9885 0.735458 89.2243 0.990521 90.3981 1.50121C91.5789 2.01498 92.6276 2.719 93.5161 3.61213C94.4232 4.55789 95.2325 5.63338 95.8791 6.77173C96.5589 7.97694 97.0764 9.27925 97.3996 10.6123Z" fill="url(#paint0_linear_146_65)" stroke="url(#paint1_linear_146_65)"/>
<path id="Vector_2" d="M158.935 18.1831L158.935 18.1831L158.939 18.1932C159.345 19.1355 159.533 20.144 159.533 21.1236C159.533 22.5144 159.156 23.8629 158.413 24.9847L158.413 24.9847L158.41 24.99C157.657 26.157 156.619 27.0778 155.414 27.7487C154.08 28.4685 152.653 29.0224 151.199 29.3475L151.199 29.3473L151.186 29.3505C149.628 29.7424 147.999 29.9072 146.394 29.9072C145.175 29.9072 143.967 29.8409 142.765 29.645C141.624 29.4481 140.53 29.1551 139.508 28.7051L139.498 28.7007L139.488 28.6968C138.516 28.3184 137.631 27.7483 136.834 27.0429C136.06 26.3257 135.468 25.4174 135.093 24.4423L135.093 24.4422L135.09 24.4349C134.864 23.8737 134.686 23.0087 134.57 22.0913C134.482 21.3926 134.434 20.6898 134.423 20.11H141.847C141.856 20.4517 141.882 20.8554 141.922 21.2501C141.984 21.8588 142.089 22.5344 142.255 22.9312L142.255 22.9312L142.258 22.9375C142.524 23.55 142.945 24.0929 143.488 24.4852C143.912 24.8082 144.531 25.0545 145.086 25.2189C145.645 25.3846 146.224 25.4918 146.594 25.4918C147.407 25.4918 148.212 25.3852 149.008 25.2112L149.015 25.2095L149.023 25.2076C149.731 25.0295 150.403 24.6837 150.949 24.2308C150.954 24.2284 150.959 24.226 150.964 24.2234C151.027 24.1916 151.071 24.1539 151.089 24.1373C151.101 24.1261 151.113 24.114 151.121 24.1064C152.181 23.1138 152.265 21.3893 151.238 20.3105C150.755 19.7878 150.159 19.3756 149.488 19.1123C148.738 18.8038 147.95 18.5277 147.158 18.3196C146.286 18.0835 145.381 17.8474 144.443 17.6115C143.515 17.3779 142.556 17.1118 141.633 16.8133L141.625 16.8108L141.617 16.8085C140.717 16.5496 139.847 16.1934 139.01 15.7394L138.999 15.7339L138.989 15.7288C138.21 15.3527 137.514 14.8471 136.834 14.2616C136.219 13.671 135.725 12.9557 135.385 12.1778L135.385 12.1778L135.384 12.1747C134.984 11.2776 134.825 10.3074 134.825 9.31726H134.825L134.825 9.30384C134.793 8.13175 135.014 6.95771 135.455 5.87813C135.865 4.92634 136.427 4.08198 137.168 3.39824C137.957 2.69978 138.845 2.15668 139.802 1.73881C140.838 1.31584 141.936 0.991009 143.065 0.796013C144.309 0.598613 145.552 0.5 146.795 0.5C147.936 0.5 149.081 0.598337 150.232 0.763701C151.296 0.926094 152.363 1.21871 153.366 1.60955L153.366 1.60962L153.375 1.61273C154.315 1.95961 155.167 2.46498 155.963 3.10377C156.682 3.76725 157.272 4.55155 157.674 5.42313L157.678 5.43178L157.682 5.44027C158.006 6.07693 158.183 6.98372 158.269 7.91688C158.333 8.60851 158.345 9.28468 158.34 9.82439L150.915 9.79475C150.906 9.15936 150.821 8.31807 150.551 7.39425L150.545 7.37246L150.536 7.35133C150.136 6.33409 149.419 5.66274 148.682 5.25872C147.964 4.86524 147.201 4.71059 146.643 4.74728C146.094 4.74801 145.563 4.7833 145.025 4.89164L145.025 4.89159L145.018 4.89304C144.5 5.00465 144.029 5.18883 143.575 5.39923L143.568 5.40253L143.561 5.40606C143.066 5.65539 142.669 6.05995 142.397 6.48924C142.06 6.99998 141.949 7.60933 141.949 8.13999C141.949 8.77288 142.259 9.3717 142.713 9.78712L142.718 9.79204L142.724 9.79681C143.227 10.2304 143.813 10.6027 144.484 10.8298C145.271 11.1392 146.056 11.3791 146.869 11.5838C147.237 11.6833 147.609 11.7809 147.987 11.8804C148.521 12.0204 149.068 12.1641 149.636 12.3218C150.608 12.5915 151.563 12.8566 152.515 13.1869L152.522 13.1895L152.53 13.1918C153.466 13.4842 154.368 13.8733 155.202 14.3579L155.202 14.3579L155.208 14.3611C156.022 14.8199 156.786 15.3344 157.448 15.9683C158.096 16.5895 158.592 17.3367 158.935 18.1831Z" fill="url(#paint2_linear_146_65)" stroke="url(#paint3_linear_146_65)"/>
<path id="Vector_3" d="M121.485 21.194L121.486 21.1756V21.1573V20.2491V0.769089H122.156H129.78V20.2154V20.4845C129.78 21.6664 129.558 22.801 129.061 23.8329L129.061 23.8329L129.058 23.8388C128.585 24.8526 127.925 25.7382 127.109 26.4657C126.207 27.2425 125.212 27.8882 124.155 28.3716L124.154 28.3721C123.022 28.8927 121.788 29.2853 120.551 29.5476C119.246 29.8098 117.943 29.9409 116.607 29.9409C115.261 29.9409 113.958 29.8418 112.662 29.581C111.392 29.3189 110.157 28.9261 108.988 28.4035L108.987 28.403C107.895 27.9185 106.866 27.2716 105.931 26.4935C105.079 25.7628 104.358 24.8459 103.891 23.8105L103.891 23.8105L103.888 23.8045C103.386 22.7315 103.133 21.5262 103.133 20.3163V20.2154V0.769089H110.79H111.493V21.5945C111.493 22.4582 111.905 23.4911 112.767 24.1666C112.791 24.193 112.812 24.213 112.827 24.2256C112.867 24.2614 112.911 24.2923 112.943 24.3139C113.009 24.3582 113.086 24.4025 113.139 24.4294C113.219 24.4697 113.289 24.4998 113.347 24.5245L113.35 24.5259C113.409 24.5514 113.455 24.5714 113.507 24.5975L113.514 24.6011L113.521 24.6044C114.46 25.0406 115.502 25.2563 116.54 25.2563C117.501 25.2563 118.508 25.0776 119.417 24.6754L119.503 24.6373L119.527 24.6133C119.542 24.6057 119.561 24.5965 119.583 24.586C119.612 24.5723 119.641 24.5587 119.67 24.5452L119.683 24.5396C119.711 24.5263 119.747 24.5097 119.773 24.4966L119.79 24.4885L119.805 24.4792C121.103 23.7037 121.416 22.1233 121.485 21.194Z" fill="url(#paint4_linear_146_65)" stroke="url(#paint5_linear_146_65)"/>
<path id="Vector_4" d="M15.4916 12.6634L15.8462 13.0202L16.2009 12.6634L28.0225 0.769089H31.1924V5.14636V29.9072H24.0687V13.2864V12.074L23.2141 12.9339L15.8462 20.3471L8.47833 12.9339L7.62369 12.074V13.2864V29.9409H0.5V5.14636V0.769089H3.66997L15.4916 12.6634Z" fill="url(#paint6_linear_146_65)" stroke="url(#paint7_linear_146_65)"/>
</g>
<g id="Group_2">
<path id="Vector_5" d="M62.2653 6.39201C62.2936 6.44906 62.3206 6.50455 62.3462 6.55832C59.9977 5.8045 58.0445 5.25548 55.9956 5.29394C53.6334 5.33828 51.1968 6.15801 47.8806 8.18372C43.9534 10.5619 42.4446 13.9657 41.9239 16.7602C41.6642 18.1538 41.6492 19.3976 41.6989 20.2936C41.7043 20.3921 41.7106 20.4864 41.7174 20.5764C40.0717 19.2704 39.1295 17.8897 38.64 16.5461C38.0643 14.9662 38.0984 13.3932 38.4113 11.9818C38.7247 10.5678 39.3151 9.33026 39.832 8.4419C40.0897 7.99903 40.3271 7.64635 40.499 7.4058C40.5849 7.2856 40.6542 7.19363 40.7013 7.13263C40.7249 7.10214 40.7429 7.07941 40.7546 7.06479L40.7673 7.04898L40.7699 7.04572L40.77 7.04561L40.7703 7.04534L40.7703 7.04527L40.7809 7.03243L40.7905 7.01902L40.7905 7.01899L40.7906 7.01885L40.7909 7.01855L40.7917 7.01744L40.7982 7.00848C40.8046 6.99994 40.8147 6.98633 40.8287 6.96795C40.8568 6.93118 40.9002 6.87538 40.9592 6.80304C41.077 6.65833 41.2567 6.4476 41.4986 6.1908C41.9825 5.67698 42.7143 4.98011 43.6974 4.25866C45.6627 2.81646 48.6292 1.27812 52.6336 0.901428C56.5556 0.532479 59.0655 2.18298 60.6122 3.92666C61.3906 4.8042 61.9253 5.70735 62.2653 6.39201Z" fill="url(#paint8_linear_146_65)" stroke="url(#paint9_linear_146_65)"/>
<path id="Vector_6" d="M56.5846 18.6372C56.5347 18.7671 56.4809 18.9039 56.4229 19.0467C55.9574 20.1937 55.2301 21.7244 54.1832 23.2643C52.0866 26.3483 48.7527 29.4115 43.7084 29.6049L43.7083 29.6049C41.5978 29.6862 40.1976 29.2687 39.2719 28.6202C38.3518 27.9756 37.842 27.0619 37.5898 26.0294C37.2238 24.5314 37.4127 22.8434 37.662 21.5331C37.895 21.9325 38.1922 22.389 38.555 22.8468C39.5806 24.141 41.1968 25.5254 43.4267 25.5254C44.5521 25.5254 46.0268 24.9948 47.5447 24.2675C49.0841 23.5299 50.7454 22.5511 52.2704 21.5788C53.7972 20.6055 55.1966 19.633 56.2137 18.9043C56.3437 18.8111 56.4675 18.7219 56.5846 18.6372Z" fill="url(#paint10_linear_146_65)" stroke="url(#paint11_linear_146_65)"/>
<path id="Vector_7" d="M58.5694 9.13983L58.5706 9.14C62.4694 9.66742 65.1161 11.5185 65.7089 13.8149C66.3458 16.282 66.0472 20.9331 62.498 23.8664C60.6818 25.3674 58.4864 26.4461 56.7297 27.1514C56.4798 27.2517 56.2393 27.3443 56.0106 27.4293C56.7178 26.6627 57.5371 25.6703 58.3237 24.552C59.2385 23.2515 60.1183 21.7675 60.7236 20.2592C61.3267 18.7566 61.6737 17.1897 61.4731 15.7405L61.4674 15.6992L61.4549 15.6593C60.9267 13.9765 59.9718 12.5487 58.4074 11.7594C57.0729 11.086 55.3637 10.9122 53.2295 11.3529C53.4158 11.0804 53.6573 10.7778 53.9616 10.4846C54.8515 9.62711 56.2991 8.82692 58.5694 9.13983Z" fill="url(#paint12_linear_146_65)" stroke="url(#paint13_linear_146_65)"/>
</g>
</g>
<defs>
<linearGradient id="paint0_linear_146_65" x1="84.1308" y1="-41.3689" x2="84.1308" y2="30.9942" gradientUnits="userSpaceOnUse">
<stop offset="0.354167" stop-color="#0071E4"/>
<stop offset="0.921875" stop-color="#093689"/>
</linearGradient>
<linearGradient id="paint1_linear_146_65" x1="84.1308" y1="51.3701" x2="84.1308" y2="0.268896" gradientUnits="userSpaceOnUse">
<stop offset="0.354167" stop-color="#0071E4"/>
<stop offset="0.921875" stop-color="#093689"/>
</linearGradient>
<linearGradient id="paint2_linear_146_65" x1="146.979" y1="-41.9291" x2="146.979" y2="30.9988" gradientUnits="userSpaceOnUse">
<stop offset="0.354167" stop-color="#0071E4"/>
<stop offset="0.921875" stop-color="#093689"/>
</linearGradient>
<linearGradient id="paint3_linear_146_65" x1="146.979" y1="51.5337" x2="146.979" y2="0.0336985" gradientUnits="userSpaceOnUse">
<stop offset="0.354167" stop-color="#0071E4"/>
<stop offset="0.921875" stop-color="#093689"/>
</linearGradient>
<linearGradient id="paint4_linear_146_65" x1="116.458" y1="-41.3353" x2="116.458" y2="31.0278" gradientUnits="userSpaceOnUse">
<stop offset="0.354167" stop-color="#0071E4"/>
<stop offset="0.921875" stop-color="#093689"/>
</linearGradient>
<linearGradient id="paint5_linear_146_65" x1="116.458" y1="51.4037" x2="116.458" y2="0.302526" gradientUnits="userSpaceOnUse">
<stop offset="0.354167" stop-color="#0071E4"/>
<stop offset="0.921875" stop-color="#093689"/>
</linearGradient>
<linearGradient id="paint6_linear_146_65" x1="15.8486" y1="-41.3353" x2="15.8486" y2="31.0278" gradientUnits="userSpaceOnUse">
<stop offset="0.354167" stop-color="#0071E4"/>
<stop offset="0.921875" stop-color="#093689"/>
</linearGradient>
<linearGradient id="paint7_linear_146_65" x1="15.8486" y1="51.4037" x2="15.8486" y2="0.302526" gradientUnits="userSpaceOnUse">
<stop offset="0.354167" stop-color="#0071E4"/>
<stop offset="0.921875" stop-color="#093689"/>
</linearGradient>
<linearGradient id="paint8_linear_146_65" x1="50.455" y1="-29.039" x2="50.455" y2="22.0764" gradientUnits="userSpaceOnUse">
<stop offset="0.354167" stop-color="#0071E4"/>
<stop offset="0.921875" stop-color="#093689"/>
</linearGradient>
<linearGradient id="paint9_linear_146_65" x1="50.455" y1="36.4694" x2="50.455" y2="0.372863" gradientUnits="userSpaceOnUse">
<stop offset="0.354167" stop-color="#0071E4"/>
<stop offset="0.921875" stop-color="#093689"/>
</linearGradient>
<linearGradient id="paint10_linear_146_65" x1="47.2283" y1="-0.396798" x2="47.2283" y2="30.3645" gradientUnits="userSpaceOnUse">
<stop offset="0.354167" stop-color="#0071E4"/>
<stop offset="0.921875" stop-color="#093689"/>
</linearGradient>
<linearGradient id="paint11_linear_146_65" x1="47.2283" y1="39.0262" x2="47.2283" y2="17.3033" gradientUnits="userSpaceOnUse">
<stop offset="0.354167" stop-color="#0071E4"/>
<stop offset="0.921875" stop-color="#093689"/>
</linearGradient>
<linearGradient id="paint12_linear_146_65" x1="59.3645" y1="-19.1299" x2="59.3645" y2="29.0499" gradientUnits="userSpaceOnUse">
<stop offset="0.354167" stop-color="#0071E4"/>
<stop offset="0.921875" stop-color="#093689"/>
</linearGradient>
<linearGradient id="paint13_linear_146_65" x1="59.3645" y1="42.6163" x2="59.3645" y2="8.5928" gradientUnits="userSpaceOnUse">
<stop offset="0.354167" stop-color="#0071E4"/>
<stop offset="0.921875" stop-color="#093689"/>
</linearGradient>
</defs>
</svg>
