<svg width="25" height="24" viewBox="0 0 25 24" fill="none" xmlns="http://www.w3.org/2000/svg">
<g id="Group">
<path id="Subtract" d="M19.9208 24C22.1889 24 24.0175 22.1714 24.0175 19.9033V4.0967C24.0175 1.84615 22.1889 0 19.9208 0H4.11416C1.84603 0 0.0174561 1.82857 0.0174561 4.0967V19.9033C0.0174561 22.1714 1.84603 24 4.11416 24H12.7469V14.7868H9.65244V11.2H12.7469V8.54508C12.7469 5.46815 14.6283 3.79782 17.3711 3.79782C18.6898 3.79782 19.8151 3.90332 20.1491 3.93848V7.17365H18.2502C16.7557 7.17365 16.4744 7.87695 16.4744 8.91431V11.2H20.0261L19.5689 14.7868H16.4744V24H19.9208Z" fill="white"/>
</g>
</svg>
