<svg width="24" height="24" viewBox="0 0 24 24" fill="none" xmlns="http://www.w3.org/2000/svg">
<g id="Group">
<g id="Subtract">
<path d="M12.0003 7.89444C9.73379 7.89444 7.88898 9.74059 7.88898 12.0087C7.88898 14.2768 9.73379 16.123 12.0003 16.123C14.2667 16.123 16.1115 14.2768 16.1115 12.0087C16.1115 9.74059 14.2667 7.89444 12.0003 7.89444Z" fill="white"/>
<path fill-rule="evenodd" clip-rule="evenodd" d="M3.39093 8.63291C3.39093 5.99556 5.53442 3.85052 8.16985 3.85052H15.8126C18.448 3.85052 20.5915 5.99556 20.5915 8.63291V15.3669C20.5915 18.0043 18.448 20.1493 15.8126 20.1493H8.16985C5.53442 20.1493 3.39093 18.0043 3.39093 15.3669V8.63291ZM12.0003 17.4944C8.9783 17.4944 6.51856 15.0329 6.51856 12.0087C6.51856 8.98455 8.9783 6.52302 12.0003 6.52302C15.0222 6.52302 17.482 8.98455 17.482 12.0087C17.482 15.0329 15.0222 17.4944 12.0003 17.4944ZM17.3764 7.84171C18.0089 7.84171 18.5184 7.33183 18.5184 6.69886C18.5184 6.0659 18.0089 5.55601 17.3764 5.55601C16.7439 5.55601 16.2344 6.0659 16.2344 6.69886C16.2344 7.33183 16.7439 7.84171 17.3764 7.84171Z" fill="white"/>
<path fill-rule="evenodd" clip-rule="evenodd" d="M19.9063 23.9999C22.1728 23.9999 24 22.1713 24 19.9032H23.9824V4.09668C23.9824 1.82856 22.1552 0 19.8887 0H4.0937C1.82723 0 0 1.82856 0 4.09668V19.9032C0 22.1713 1.82723 24.0175 4.0937 23.9999H19.9063ZM8.16985 21.5383H15.8126C19.2035 21.5383 21.9619 18.7779 21.9619 15.3669V8.63291C21.9619 5.23952 19.2035 2.4791 15.8126 2.4791H8.16985C4.77893 2.4791 2.02051 5.23952 2.02051 8.63291V15.3845C2.02051 18.7779 4.77893 21.5383 8.16985 21.5383Z" fill="white"/>
</g>
</g>
</svg>
