<svg width="25" height="24" viewBox="0 0 25 24" fill="none" xmlns="http://www.w3.org/2000/svg">
<g id="Group">
<path id="Subtract" fill-rule="evenodd" clip-rule="evenodd" d="M19.9208 23.9999C22.1889 23.9999 24.0175 22.1713 24.0175 19.9032V4.09668C24.0175 1.82856 22.1889 0 19.9208 0H4.11426C1.84614 0 -1.72108e-06 1.82856 0.0175806 4.09668V19.9032C0.0175806 22.1713 1.84614 23.9999 4.11426 23.9999H19.9208ZM7.82773 9.22416V20.0604H4.2241V9.22416H7.82773ZM8.067 5.87432C8.067 6.91117 7.28392 7.74501 6.02954 7.74501H6.00779C4.80054 7.74501 4.01746 6.9148 4.01746 5.87432C4.01746 4.80846 4.82229 4 6.05492 4C7.28392 4 8.04163 4.81208 8.067 5.87432ZM13.4253 20.064H9.82169C9.82169 20.064 9.86882 10.2429 9.82531 9.23141H13.4289V10.7619C13.9087 10.0238 14.7646 8.97401 16.6736 8.97401C19.0446 8.97401 20.8211 10.522 20.8211 13.8501V20.064H17.2175V14.267C17.2175 12.8097 16.6954 11.8163 15.3939 11.8163C14.3969 11.8163 13.806 12.4834 13.5449 13.1323C13.4507 13.3607 13.4253 13.687 13.4253 14.0096V20.064Z" fill="white"/>
</g>
</svg>
