<svg width="190" height="36" viewBox="0 0 190 36" fill="none" xmlns="http://www.w3.org/2000/svg">
<g id="modus_logo">
<g id="Group">
<path id="Vector" d="M105.605 26.3823L105.603 26.3858C105.007 27.4463 104.142 28.3585 103.105 29.0392L103.092 29.0478L103.079 29.056C102.021 29.7035 100.774 30.0783 99.5121 30.0783H92.1189H91.1189V29.0783V7.23964V6.23964H92.1189H99.5516C101.199 6.23964 102.796 6.90081 103.971 8.0795C105.199 9.27313 106.071 10.7274 106.592 12.3425L105.605 26.3823ZM105.605 26.3823C106.207 25.3009 106.63 24.1454 106.924 22.966C107.11 22.2821 107.222 21.2118 107.295 20.2322C107.37 19.2173 107.41 18.1969 107.43 17.5744L107.431 17.5584M105.605 26.3823L107.431 17.5584M107.431 17.5584V17.5424M107.431 17.5584V17.5424M107.431 17.5424C107.431 15.8007 107.136 14.0265 106.592 12.3428L107.431 17.5424ZM114.79 12.6465L114.792 12.6547L114.794 12.6628C115.204 14.2412 115.395 15.8691 115.433 17.4747C115.432 19.6972 115.038 23.2795 114.277 25.2113L114.277 25.2113L114.272 25.2244C113.565 27.097 112.524 28.8189 111.185 30.3167C109.893 31.7266 108.302 32.8818 106.558 33.7029L106.55 33.7066L106.543 33.7104C104.834 34.5516 102.932 34.9601 100.975 34.9601H83.5511V1.27832H102.556C104.001 1.27832 105.407 1.5685 106.744 2.14998C108.094 2.73761 109.29 3.54078 110.302 4.55721C111.351 5.65138 112.286 6.89504 113.033 8.20943C113.819 9.60262 114.416 11.1075 114.79 12.6465Z" stroke="white" stroke-width="2"/>
<path id="Vector_2" d="M187.581 21.6571L187.585 21.6672L187.589 21.6773C188.045 22.737 188.259 23.8742 188.259 24.9812C188.259 26.5531 187.833 28.0679 187.002 29.3217L187.002 29.3216L186.995 29.3322C186.146 30.649 184.972 31.6934 183.599 32.4579C182.052 33.2925 180.4 33.9328 178.722 34.3081L178.709 34.311L178.696 34.3142C176.892 34.7679 174.999 34.9602 173.128 34.9602C171.702 34.9602 170.297 34.8826 168.905 34.6557C167.579 34.4268 166.319 34.0882 165.149 33.5731L165.129 33.5644L165.109 33.5566C164.013 33.1297 163.008 32.4844 162.097 31.6786C161.233 30.8764 160.567 29.8571 160.145 28.7592L160.142 28.7518L160.139 28.7445C159.892 28.1307 159.687 27.1499 159.551 26.0745C159.469 25.4224 159.417 24.7689 159.393 24.1912H167.358C167.374 24.5064 167.4 24.8431 167.433 25.1723C167.506 25.888 167.634 26.7442 167.857 27.2766L167.856 27.2767L167.862 27.2894C168.203 28.0745 168.744 28.7753 169.448 29.285C170.01 29.7108 170.796 30.0179 171.465 30.2162C172.142 30.417 172.871 30.5558 173.365 30.5558C174.362 30.5558 175.344 30.4251 176.307 30.2145L176.322 30.2111L176.337 30.2074C177.218 29.9857 178.054 29.56 178.74 29.0005C178.85 28.9414 178.925 28.8757 178.955 28.8483C178.973 28.8315 178.992 28.8139 179.003 28.8022C180.413 27.477 180.527 25.1825 179.155 23.7399C178.544 23.0793 177.79 22.5574 176.94 22.2234C176.042 21.8538 175.093 21.5215 174.137 21.2702C173.104 20.9904 172.032 20.7108 170.921 20.4313C169.829 20.1567 168.705 19.8445 167.624 19.4949L167.608 19.4899L167.593 19.4853C166.556 19.1874 165.556 18.7774 164.59 18.2544L164.57 18.2433L164.549 18.2332C163.674 17.8108 162.884 17.2395 162.098 16.5636C161.414 15.9047 160.863 15.1064 160.483 14.238L160.483 14.238L160.481 14.2317C160.036 13.2348 159.856 12.1468 159.856 11.0188V11.0054L159.855 10.9919C159.82 9.66502 160.069 8.33421 160.568 7.10985C161.034 6.03116 161.667 5.08472 162.491 4.32203C163.388 3.52994 164.397 2.91114 165.491 2.43286C166.689 1.94434 167.957 1.56961 169.259 1.34458C170.708 1.11474 172.155 1 173.602 1C174.928 1 176.262 1.11419 177.607 1.30745C178.834 1.49477 180.066 1.83255 181.226 2.28431L181.234 2.28757L181.243 2.29068C182.303 2.68203 183.269 3.25292 184.178 3.98051C184.988 4.73003 185.648 5.61127 186.097 6.58474L186.105 6.60203L186.114 6.61901C186.461 7.30123 186.665 8.31062 186.766 9.40025C186.824 10.0361 186.845 10.6622 186.848 11.2082L178.87 11.1763C178.832 10.4562 178.714 9.57839 178.437 8.62992L178.424 8.58633L178.407 8.54408C177.893 7.23818 176.971 6.37663 176.03 5.86069C175.127 5.36557 174.154 5.15981 173.41 5.20556C172.748 5.20698 172.095 5.25008 171.428 5.38429L171.428 5.3842L171.415 5.3871C170.762 5.52783 170.174 5.75872 169.623 6.01457L169.609 6.02117L169.595 6.02822C168.932 6.36188 168.412 6.89604 168.058 7.45234C167.603 8.14372 167.463 8.94995 167.463 9.62652C167.463 10.5074 167.892 11.3201 168.499 11.876L168.51 11.8859L168.521 11.8954C169.144 12.4327 169.879 12.9023 170.729 13.1915C171.675 13.5628 172.617 13.8503 173.587 14.0946C174.028 14.2141 174.468 14.3297 174.915 14.4469C175.542 14.6114 176.182 14.7793 176.854 14.9658C178.005 15.2853 179.121 15.5955 180.233 15.9812L180.248 15.9863L180.263 15.991C181.343 16.3284 182.381 16.7767 183.34 17.3334L183.34 17.3334L183.351 17.3397C184.297 17.8725 185.169 18.4617 185.918 19.1795C186.641 19.872 187.196 20.7066 187.581 21.6571Z" stroke="white" stroke-width="2"/>
<path id="Vector_3" d="M144.081 23.9468V1.31812H144.465H153.072V23.9071V24.2253C153.072 25.5717 152.819 26.8513 152.262 28.0078L152.261 28.0077L152.256 28.0196C151.721 29.1673 150.975 30.1686 150.052 30.9914C149.015 31.8852 147.87 32.6266 146.658 33.1811L146.656 33.182C145.349 33.7833 143.92 34.2385 142.483 34.5432C140.968 34.8478 139.454 34.9999 137.902 34.9999C136.331 34.9999 134.818 34.8843 133.318 34.5825C131.844 34.2782 130.412 33.8227 129.058 33.2174L129.056 33.2163C127.802 32.6597 126.617 31.9158 125.54 31.0195C124.574 30.1905 123.761 29.1539 123.236 27.9904L123.236 27.9904L123.23 27.9784C122.664 26.7672 122.375 25.4014 122.375 24.0264V23.9071V1.31812H131.022H131.446V25.538C131.446 26.666 131.974 27.9982 133.082 28.8807C133.115 28.9145 133.143 28.94 133.161 28.9563C133.229 29.016 133.298 29.064 133.341 29.0933C133.433 29.1546 133.538 29.2157 133.617 29.2556C133.723 29.3088 133.815 29.3485 133.882 29.3776L133.888 29.38C133.958 29.4104 134.003 29.4296 134.052 29.4545L134.066 29.4616L134.08 29.4682C135.248 30.0107 136.54 30.2772 137.822 30.2772C139.008 30.2772 140.256 30.0573 141.39 29.5552L141.562 29.4791L141.596 29.4454C141.596 29.4453 141.596 29.4452 141.596 29.4451C141.633 29.4278 141.671 29.4104 141.71 29.392L141.768 29.3653C141.778 29.3604 141.791 29.3546 141.803 29.3483C141.812 29.3441 141.821 29.3397 141.83 29.3352L141.862 29.3189L141.894 29.3003C143.615 28.2717 143.996 26.2106 144.078 25.0943L144.081 25.0576V25.0209V23.9468Z" stroke="white" stroke-width="2"/>
<path id="Vector_4" d="M18.0308 15.2639L18.7401 15.9776L19.4493 15.2639L33.3099 1.31812H36.4801V6.08607V34.9601H28.8729V15.7126V13.2879L27.1636 15.0077L18.7401 23.483L10.3165 15.0077L8.60724 13.2879V15.7126V34.9999H1V6.08607V1.31812H4.17016L18.0308 15.2639Z" stroke="white" stroke-width="2"/>
</g>
<g id="Group_2">
<path id="Vector_5" d="M73.7179 7.51877C73.7862 7.65631 73.8478 7.78622 73.9029 7.90707C71.036 6.98284 68.6877 6.30581 66.2232 6.35207C63.4519 6.40409 60.5865 7.36508 56.6721 9.75619C52.0549 12.5521 50.282 16.5517 49.6697 19.8377C49.3642 21.477 49.3465 22.9404 49.405 23.9946C49.4158 24.1888 49.4291 24.3693 49.4438 24.5347C47.3841 22.9433 46.2122 21.2504 45.6105 19.599C44.9224 17.7105 44.964 15.8319 45.3367 14.1502C45.71 12.466 46.4128 10.9934 47.0271 9.9377C47.3335 9.41114 47.6159 8.99166 47.8205 8.70523C47.9228 8.56209 48.0055 8.45241 48.0618 8.37944C48.09 8.34296 48.1116 8.31568 48.1257 8.298L48.1413 8.27874L48.1446 8.27461L48.145 8.2742L48.1452 8.27395L48.1452 8.27394L48.1558 8.26103L48.1655 8.24757L48.1656 8.24744L48.1656 8.24741L48.1658 8.24715L48.1671 8.24531L48.1753 8.23417C48.183 8.22371 48.1953 8.20724 48.2122 8.18513C48.2459 8.1409 48.2979 8.07415 48.3682 7.98781C48.5089 7.81511 48.7228 7.56424 49.0105 7.25882C49.586 6.64778 50.4555 5.8198 51.6233 4.96283C53.958 3.24958 57.4815 1.42254 62.2369 0.975202C66.9098 0.535612 69.9051 2.504 71.7494 4.58322C72.6766 5.62854 73.3132 6.70387 73.7179 7.51877Z" fill="white" stroke="white"/>
<path id="Vector_6" d="M67.1111 21.7877C67.0239 22.0231 66.9242 22.2815 66.8115 22.5592C66.2592 23.9199 65.3963 25.7363 64.1537 27.5641C61.6656 31.224 57.6998 34.8723 51.6939 35.1025L51.6938 35.1025C49.185 35.1992 47.5074 34.7033 46.3914 33.9215C45.2809 33.1436 44.6679 32.0416 44.3657 30.8044C43.9058 28.9218 44.1795 26.7922 44.4973 25.2069C44.7865 25.7231 45.1758 26.3418 45.6675 26.9623C46.8732 28.4838 48.7611 30.0955 51.3572 30.0955C52.6659 30.0955 54.3935 29.4765 56.1879 28.6168C58.0038 27.7468 59.9649 26.5913 61.767 25.4425C63.5708 24.2926 65.2243 23.1435 66.4263 22.2823C66.6746 22.1044 66.9037 21.9387 67.1111 21.7877Z" fill="white" stroke="white"/>
<path id="Vector_7" d="M69.2779 10.7185L69.2791 10.7187C73.9044 11.3444 77.0822 13.5456 77.7972 16.315C78.5562 19.2551 78.2026 24.7968 73.9696 28.2953C71.8115 30.0789 69.2055 31.3587 67.1238 32.1946C66.6931 32.3675 66.2859 32.521 65.9111 32.6557C66.7998 31.7201 67.8736 30.4428 68.9002 28.9833C69.9794 27.4489 71.0158 25.7002 71.7283 23.925C72.4385 22.1555 72.8431 20.3194 72.609 18.6276L72.6032 18.5863L72.5907 18.5464C71.971 16.5719 70.8543 14.9075 69.0327 13.9884C67.4334 13.1815 65.3636 12.9859 62.7513 13.562C62.9878 13.1907 63.3163 12.7541 63.7528 12.3336C64.8228 11.3026 66.562 10.3442 69.2779 10.7185Z" fill="white" stroke="white"/>
</g>
</g>
</svg>
