<svg width="25" height="24" viewBox="0 0 25 24" fill="none" xmlns="http://www.w3.org/2000/svg">
<g id="Group">
<g id="Group_2">
<path id="Subtract" fill-rule="evenodd" clip-rule="evenodd" d="M19.9208 23.9999C22.1889 23.9999 24.0175 22.1713 24.0175 19.9032V4.09668C24.0175 1.82856 22.1889 0 19.9208 0H4.11426C1.84614 0 -1.72108e-06 1.82856 0.0175806 4.09668V19.9032C0.0175806 22.1713 1.84614 23.9999 4.11426 23.9999H19.9208ZM19.0944 7.20872C19.0944 7.20872 19.3757 7.22631 19.7449 7.12081C20.1141 7.0329 20.9933 6.62851 20.9933 6.62851C20.9933 6.62851 20.624 7.31422 20.0438 7.89443C19.446 8.47465 19.1823 8.61531 19.1823 8.61531V8.59773C19.024 13.5032 15.7537 18.4966 9.95156 18.7955C7.75377 18.9186 5.74938 18.0219 4.18455 16.7383C4.74718 16.9142 5.34498 17.0021 5.96037 17.0021C7.13838 17.0021 8.24607 16.5625 9.19551 15.8241C9.19551 15.8241 5.94278 14.9274 6.03069 13.4153L7.57794 13.3801C7.57794 13.3801 6.59333 13.0812 6.04828 12.5889C5.11641 11.745 4.58895 10.5669 4.85268 9.9164C4.85268 9.9164 5.01092 10.0571 5.46806 10.2153C5.90762 10.356 6.34718 10.356 6.34718 10.356C6.34718 10.356 5.38015 9.67025 5.09883 8.91421C4.65928 7.71861 4.87027 6.18895 5.30982 5.73181C5.30982 5.73181 5.48564 6.69883 8.24607 8.08784C9.63507 8.80871 11.1999 9.30102 12.4307 9.33618C12.3428 9.05487 12.29 8.49223 12.29 8.19333C12.29 6.54059 13.8373 5.18675 15.7361 5.18675C16.8087 5.18675 17.7581 5.60873 18.3911 6.27686L19.3054 5.87247L20.3955 5.41532C20.3955 5.41532 20.4658 5.46807 20.413 5.6439C20.3076 6.03071 19.446 6.87466 19.112 7.13839L19.0944 7.20872Z" fill="white"/>
</g>
</g>
</svg>
