<svg width="25" height="24" viewBox="0 0 25 24" fill="none" xmlns="http://www.w3.org/2000/svg">
<g id="R">
<g id="Group">
<g id="Subtract">
<path fill-rule="evenodd" clip-rule="evenodd" d="M7.58984 18.4568L7.87095 18.6325C9.11839 19.4232 10.5591 19.8273 12.0174 19.8273C16.3219 19.8273 19.8358 16.3134 19.8358 12.0088C19.8358 7.70428 16.3219 4.19037 12.0174 4.19037C7.71283 4.19037 4.19892 7.70428 4.19892 12.0088C4.19892 13.7658 4.77871 15.4173 5.86802 16.8229L6.06129 17.0688L5.63962 19.1245L7.58984 18.4568ZM8.36308 7.47589C7.92385 7.5286 7.37919 8.47736 7.37919 8.47736C7.04537 8.96931 7.01023 9.49639 7.27377 10.6384C7.53732 11.8331 8.67934 13.1333 9.96191 14.4159C11.2445 15.6984 13.6515 16.5242 14.6706 16.5242C15.6585 16.5242 16.3162 15.8636 16.5635 15.6152C16.5713 15.6074 16.5787 15.6 16.5856 15.593C16.8316 15.3646 16.937 14.6794 16.937 14.3983C16.937 14.1172 16.7613 14.0469 16.7613 14.0469C16.7613 14.0469 15.1976 13.2563 14.8287 13.0981C14.4597 12.94 14.2489 13.2211 14.2489 13.2211C14.2489 13.2211 13.5637 14.082 13.4407 14.205C13.3177 14.3456 13.1244 14.3104 13.1244 14.3104C13.1244 14.3104 11.7364 13.8009 11.0161 13.0806C10.4445 12.509 10.1052 12.0369 9.87534 11.7171C9.81552 11.6339 9.76311 11.561 9.71594 11.4993C9.48754 11.1831 9.71594 10.902 9.71594 10.902C9.71594 10.902 10.12 10.4979 10.2957 10.2167C10.489 9.93563 10.366 9.65452 10.366 9.65452C10.366 9.65452 9.6808 7.98541 9.52267 7.7043C9.36455 7.42319 8.80232 7.42319 8.36308 7.47589Z" fill="white"/>
<path fill-rule="evenodd" clip-rule="evenodd" d="M24.0175 19.8975C24.0175 22.164 22.1902 23.9912 19.9238 23.9912H4.11116C1.86226 24.0088 0.0174561 22.164 0.0174561 19.8975V4.10249C0.0174561 1.83602 1.86226 0.00878906 4.11116 0.00878906H19.9062C22.1727 0.00878906 23.9999 1.83602 23.9999 4.10249V19.8975H24.0175ZM12.0174 21.1977C10.401 21.1977 8.83728 20.776 7.43171 19.9678L3.84752 21.1977L4.58545 17.4027C3.42586 15.8214 2.82849 13.959 2.82849 12.0088C2.82849 6.94879 6.95734 2.81995 12.0174 2.81995C17.0774 2.81995 21.2062 6.94879 21.2062 12.0088C21.2062 17.0688 17.0774 21.1977 12.0174 21.1977Z" fill="white"/>
</g>
</g>
</g>
</svg>
